<svg xmlns="http://www.w3.org/2000/svg" version="1.1" xmlns:xlink="http://www.w3.org/1999/xlink" xmlns:svgjs="http://svgjs.dev/svgjs" width="2000" height="595" viewBox="0 0 2000 595"><g transform="matrix(1,0,0,1,-1.2121212121212466,-0.4726081193757068)"><svg viewBox="0 0 396 118" data-background-color="#ffffff" preserveAspectRatio="xMidYMid meet" height="595" width="2000" xmlns="http://www.w3.org/2000/svg" xmlns:xlink="http://www.w3.org/1999/xlink"><g id="tight-bounds" transform="matrix(1,0,0,1,0.2400000000000091,0.09372732451484467)"><svg viewBox="0 0 395.52 117.8125453509703" height="117.8125453509703" width="395.52"><g><svg viewBox="0 0 498.29664998680727 148.426366997389" height="117.8125453509703" width="395.52"><g transform="matrix(1,0,0,1,102.7766499868073,20.51334015665796)"><svg viewBox="0 0 395.52 107.39968668407309" height="107.39968668407309" width="395.52"><g id="textblocktransform"><svg viewBox="0 0 395.52 107.39968668407309" height="107.39968668407309" width="395.52" id="textblock"><g><svg viewBox="0 0 395.52 107.39968668407309" height="107.39968668407309" width="395.52"><g transform="matrix(1,0,0,1,0,0)"><svg width="395.52" viewBox="2.5 -35.9 135.54 36.4" height="107.39968668407309" data-palette-color="#0063db"><g class="wordmark-text-0" data-fill-palette-color="primary" id="text-0"><path d="M15.5 0.5L15.5 0.5Q12.75 0.5 10.3-0.03 7.85-0.55 6.05-1.3 4.25-2.05 3.4-2.7L3.4-2.7 3.4-11.65Q5.8-10.3 9.45-9.13 13.1-7.95 17.55-7.95L17.55-7.95Q19.35-7.95 20.23-8.43 21.1-8.9 21.1-10.1L21.1-10.1Q21.1-11.4 19.13-12.28 17.15-13.15 12.9-14.45L12.9-14.45Q9.6-15.5 7.28-16.78 4.95-18.05 3.73-19.98 2.5-21.9 2.5-24.9L2.5-24.9Q2.5-28 4.1-30.5 5.7-33 9.1-34.45 12.5-35.9 17.8-35.9L17.8-35.9Q19.4-35.9 21.23-35.77 23.05-35.65 24.15-35.45L24.15-35.45 29.8-31.3 27.85-25.2 16-28.45Q13.95-28.45 12.98-27.6 12-26.75 12-25.55L12-25.55Q12-24.1 13.65-23.25 15.3-22.4 18.4-21.55L18.4-21.55Q23.3-20.2 26-18.55 28.7-16.9 29.8-14.83 30.9-12.75 30.9-10.15L30.9-10.15Q30.9-5.35 27.05-2.43 23.2 0.5 15.5 0.5ZM46.4 0.5L46.4 0.5Q42.95 0.5 40.17-0.65 37.4-1.8 35.77-4.5 34.15-7.2 34.15-11.8L34.15-11.8Q34.15-16.45 35.9-19.13 37.65-21.8 40.45-22.95 43.25-24.1 46.4-24.1L46.4-24.1Q49.15-24.1 51.12-23.9 53.1-23.7 53.75-23.55L53.75-23.55 57.65-19.15 53.65-13.7 47.9-17.1Q43.6-17.1 43.6-11.8L43.6-11.8Q43.6-9.05 44.9-7.78 46.2-6.5 48.9-6.5L48.9-6.5Q51.6-6.5 53.75-7.25 55.9-8 57.1-8.65L57.1-8.65 57.1-1.45Q55.55-0.65 53.02-0.08 50.5 0.5 46.4 0.5ZM71.59 0L62.7 0 62.7-15.65 61.65-20.65 62.7-23.65 69.5-23.65 70.5-22.5Q70.5-22.5 71.2-22.93 71.9-23.35 73.17-23.75 74.45-24.15 76.15-24.15L76.15-24.15Q77.15-24.15 78.15-24 79.15-23.85 79.7-23.6L79.7-23.6 82.95-20.85 79.7-14.45 73.09-17.2 71.59-16.7 71.59 0ZM96.99 0.5L96.99 0.5Q90.89 0.5 87.54-2.4 84.19-5.3 84.19-11.8L84.19-11.8Q84.19-18.35 87.54-21.23 90.89-24.1 96.99-24.1L96.99-24.1Q103.24-24.1 106.47-21.23 109.69-18.35 109.69-11.8L109.69-11.8Q109.69-5.3 106.47-2.4 103.24 0.5 96.99 0.5ZM96.99-6L96.99-6Q99.04-6 99.84-7.53 100.64-9.05 100.64-11.8L100.64-11.8Q100.64-14.6 99.84-16.1 99.04-17.6 96.99-17.6L96.99-17.6Q94.89-17.6 94.07-16.1 93.24-14.6 93.24-11.8L93.24-11.8Q93.24-9.05 94.07-7.53 94.89-6 96.99-6ZM122.99 0L113.99 0 113.94-27.4 112.94-32.4 113.99-35.4 122.99-35.4 122.99 0ZM138.04 0L129.04 0 128.99-27.4 127.99-32.4 129.04-35.4 138.04-35.4 138.04 0Z" fill="#0063db" data-fill-palette-color="primary"></path></g></svg></g></svg></g></svg></g></svg></g><g><svg viewBox="0 0 77.42216155317806 148.426366997389" height="148.426366997389" width="77.42216155317806"><g><svg xmlns="http://www.w3.org/2000/svg" xmlns:xlink="http://www.w3.org/1999/xlink" version="1.1" x="0" y="0" viewBox="23.919 0 52.162000000000006 100" style="enable-background:new 0 0 100 100;" xml:space="preserve" height="148.426366997389" width="77.42216155317806" class="icon-icon-0" data-fill-palette-color="accent" id="icon-0"><g fill="#0e07e0" data-fill-palette-color="accent"><path d="M67.398 50c0 9.609-7.79 17.398-17.398 17.398-9.609 0-17.398-7.789-17.398-17.398 0-9.609 7.79-17.398 17.398-17.398C59.608 32.602 67.398 40.391 67.398 50zM76.081 26.081L50 0 23.919 26.081H76.081zM23.919 73.919L50 100l26.081-26.081H23.919z" fill="#0e07e0" data-fill-palette-color="accent"></path></g></svg></g></svg></g></svg></g><defs></defs></svg><rect width="395.52" height="117.8125453509703" fill="none" stroke="none" visibility="hidden"></rect></g></svg></g></svg>